<?xml version="1.0" encoding="UTF-8" standalone="no"?>
<!-- Created with Inkscape (http://www.inkscape.org/) -->

<svg
   xmlns:dc="http://purl.org/dc/elements/1.1/"
   xmlns:cc="http://creativecommons.org/ns#"
   xmlns:rdf="http://www.w3.org/1999/02/22-rdf-syntax-ns#"
   xmlns:svg="http://www.w3.org/2000/svg"
   xmlns="http://www.w3.org/2000/svg"
   xmlns:sodipodi="http://sodipodi.sourceforge.net/DTD/sodipodi-0.dtd"
   xmlns:inkscape="http://www.inkscape.org/namespaces/inkscape"
   version="1.1"
   id="svg3783"
   width="149.06271"
   height="168.13512"
   viewBox="0 0 149.06271 168.13512"
   sodipodi:docname="logo.svg"
   inkscape:version="0.92.3 (2405546, 2018-03-11)">
  <metadata
     id="metadata3789">
    <rdf:RDF>
      <cc:Work
         rdf:about="">
        <dc:format>image/svg+xml</dc:format>
        <dc:type
           rdf:resource="http://purl.org/dc/dcmitype/StillImage" />
        <dc:title></dc:title>
      </cc:Work>
    </rdf:RDF>
  </metadata>
  <defs
     id="defs3787" />
  <sodipodi:namedview
     pagecolor="#4c1130"
     bordercolor="#666666"
     borderopacity="1"
     objecttolerance="10"
     gridtolerance="10"
     guidetolerance="10"
     inkscape:pageopacity="0"
     inkscape:pageshadow="2"
     inkscape:window-width="1231"
     inkscape:window-height="745"
     id="namedview3785"
     showgrid="false"
     inkscape:zoom="1.8809041"
     inkscape:cx="71.29425"
     inkscape:cy="72.994046"
     inkscape:window-x="49"
     inkscape:window-y="27"
     inkscape:window-maximized="1"
     inkscape:current-layer="text4619"
     fit-margin-top="0"
     fit-margin-left="0"
     fit-margin-right="0"
     fit-margin-bottom="0"
     inkscape:pagecheckerboard="false" />
  <g
     aria-label="ALERTAUFES"
     style="font-style:normal;font-weight:normal;font-size:40px;line-height:1.25;font-family:sans-serif;letter-spacing:0px;word-spacing:0px;fill:#fd374b;fill-opacity:1;stroke:none"
     id="text4619"
     transform="translate(24.987984,28.185169)">
    <g
       id="g864"
       transform="matrix(1.5043658,0,0,1.5043658,-24.987984,-28.185169)">
      <circle
         style="fill:#fd374b;fill-opacity:1;stroke:none;stroke-width:1.01524091;stroke-opacity:1"
         r="37.563908"
         cy="41.259373"
         cx="53.170013"
         id="path3793" />
      <circle
         style="fill:#ffffff;fill-opacity:1;stroke-width:0.25828081"
         r="9.5563879"
         cy="77.067635"
         cx="45.384308"
         id="path3793-3" />
      <path
         inkscape:connector-curvature="0"
         id="path3810"
         d="m 52.151207,2.25563 -8.27067,56.95489 h 9.58646 L 69.820387,0 Z"
         style="fill:#ffffff;fill-opacity:1;stroke:none;stroke-width:1px;stroke-linecap:butt;stroke-linejoin:miter;stroke-opacity:1" />
      <path
         id="path827"
         style="fill:#ffffff"
         d="m 0,110.58878 q 0,-0.0373 0.03733333,-0.18667 L 3.6399999,98.660779 q 0.112,-0.392 0.5413333,-0.597333 0.448,-0.224 1.008,-0.224 0.5599999,0 1.0079999,0.224 0.448,0.205333 0.56,0.597333 L 10.36,110.40211 q 0.03733,0.14934 0.03733,0.18667 0,0.41067 -0.504,0.70933 -0.504,0.29867 -1.0266666,0.29867 -0.6906667,0 -0.8213333,-0.48533 L 7.3359997,108.62878 H 3.0613332 l -0.7093333,2.48267 q -0.1306666,0.48533 -0.8213333,0.48533 -0.5413333,0 -1.04533329,-0.28 Q 0,111.01811 0,110.58878 Z m 3.5653332,-3.864 h 3.2479999 l -1.6239999,-5.73067 z"
         inkscape:connector-curvature="0" />
      <path
         id="path829"
         style="fill:#ffffff"
         d="M 11.67075,110.83145 V 98.698113 q 0,-0.373334 0.354667,-0.56 0.354666,-0.186667 0.858666,-0.186667 0.504,0 0.858667,0.186667 0.354667,0.186666 0.354667,0.56 v 10.770667 h 4.554666 q 0.336,0 0.522667,0.31733 0.205333,0.31734 0.205333,0.74667 0,0.42933 -0.205333,0.74667 -0.186667,0.31733 -0.522667,0.31733 H 12.73475 q -0.429333,0 -0.746667,-0.20533 -0.317333,-0.20534 -0.317333,-0.56 z"
         inkscape:connector-curvature="0" />
      <path
         id="path831"
         style="fill:#ffffff"
         d="M 20.712416,110.83145 V 98.716779 q 0,-0.354666 0.317333,-0.56 0.317334,-0.205333 0.746667,-0.205333 h 6.645333 q 0.373333,0 0.56,0.317333 0.205333,0.317334 0.205333,0.728 0,0.448 -0.205333,0.765334 -0.205333,0.317337 -0.56,0.317337 h -5.282666 v 3.73333 h 2.837333 q 0.354666,0 0.56,0.29867 0.205333,0.28 0.205333,0.672 0,0.35466 -0.205333,0.65333 -0.186667,0.28 -0.56,0.28 h -2.837333 v 3.752 h 5.282666 q 0.354667,0 0.56,0.31733 0.205333,0.31734 0.205333,0.76534 0,0.41066 -0.205333,0.728 -0.186667,0.31733 -0.56,0.31733 h -6.645333 q -0.429333,0 -0.746667,-0.20533 -0.317333,-0.20534 -0.317333,-0.56 z"
         inkscape:connector-curvature="0" />
      <path
         id="path833"
         style="fill:#ffffff"
         d="M 30.592625,110.83145 V 98.698113 q 0,-0.298667 0.224,-0.522667 0.224,-0.224 0.56,-0.224 h 3.696 q 4.424,0 4.424,3.901334 0,1.53067 -0.672,2.464 -0.653334,0.93333 -1.773334,1.26933 l 2.445334,4.536 q 0.09333,0.112 0.09333,0.29867 0,0.46667 -0.485333,0.87733 -0.485334,0.392 -1.026667,0.392 -0.541333,0 -0.84,-0.57866 l -2.650667,-5.152 h -1.567999 v 4.872 q 0,0.35466 -0.354667,0.56 -0.354667,0.20533 -0.858667,0.20533 -0.485333,0 -0.858666,-0.20533 -0.354667,-0.20534 -0.354667,-0.56 z m 2.426667,-6.776 h 2.053333 q 1.997333,0 1.997333,-1.97867 0,-1.99733 -1.997333,-1.99733 h -2.053333 z"
         inkscape:connector-curvature="0" />
      <path
         id="path835"
         style="fill:#ffffff"
         d="m 40.196625,99.034113 q 0,-0.429334 0.186667,-0.746667 0.205333,-0.336 0.578666,-0.336 h 7.896 q 0.373333,0 0.56,0.336 0.205333,0.317333 0.205333,0.746667 0,0.448 -0.205333,0.784 -0.205333,0.317337 -0.56,0.317337 h -2.725333 v 10.696 q 0,0.35466 -0.373334,0.56 -0.354666,0.20533 -0.839999,0.20533 -0.504,0 -0.858667,-0.20533 -0.354667,-0.20534 -0.354667,-0.56 v -10.696 h -2.744 q -0.354666,0 -0.56,-0.317337 -0.205333,-0.317334 -0.205333,-0.784 z"
         inkscape:connector-curvature="0" />
      <path
         id="path837"
         style="fill:#ffffff"
         d="m 48.890625,110.58878 q 0,-0.0373 0.03733,-0.18667 l 3.602667,-11.741331 q 0.112,-0.392 0.541333,-0.597333 0.448,-0.224 1.008,-0.224 0.56,0 1.008,0.224 0.448,0.205333 0.56,0.597333 l 3.602667,11.741331 q 0.03733,0.14934 0.03733,0.18667 0,0.41067 -0.504,0.70933 -0.504,0.29867 -1.026667,0.29867 -0.690666,0 -0.821333,-0.48533 l -0.709333,-2.48267 h -4.274667 l -0.709333,2.48267 q -0.130667,0.48533 -0.821333,0.48533 -0.541334,0 -1.045334,-0.28 -0.485333,-0.29867 -0.485333,-0.728 z m 3.565333,-3.864 h 3.248 l -1.624,-5.73067 z"
         inkscape:connector-curvature="0" />
      <path
         id="path839"
         style="font-style:normal;font-variant:normal;font-weight:bold;font-stretch:normal;font-size:18.66666603px;font-family:Dosis;-inkscape-font-specification:'Dosis Bold';fill:#fd374b;fill-opacity:1"
         d="m 60.505375,107.43411 v -8.735997 q 0,-0.373334 0.354667,-0.56 0.354666,-0.186667 0.858666,-0.186667 0.504,0 0.858667,0.186667 0.354667,0.186666 0.354667,0.56 v 8.735997 q 0,2.14667 2.053333,2.14667 2.053333,0 2.053333,-2.14667 v -8.735997 q 0,-0.373334 0.354667,-0.56 0.354666,-0.186667 0.858666,-0.186667 0.504,0 0.858667,0.186667 0.354667,0.186666 0.354667,0.56 v 8.735997 q 0,2.20267 -1.232,3.248 -1.213334,1.02667 -3.248,1.02667 -2.034667,0 -3.266667,-1.02667 -1.213333,-1.02666 -1.213333,-3.248 z"
         inkscape:connector-curvature="0" />
      <path
         id="path841"
         style="font-style:normal;font-variant:normal;font-weight:bold;font-stretch:normal;font-size:18.66666603px;font-family:Dosis;-inkscape-font-specification:'Dosis Bold';fill:#fd374b;fill-opacity:1"
         d="M 71.644703,110.83145 V 98.716779 q 0,-0.354666 0.317334,-0.56 0.317333,-0.205333 0.746666,-0.205333 h 6.514667 q 0.373333,0 0.56,0.317333 0.186666,0.298667 0.186666,0.728 0,0.448 -0.205333,0.765334 -0.186667,0.317337 -0.541333,0.317337 h -5.152 v 3.73333 h 2.856 q 0.354666,0 0.541333,0.28 0.205333,0.28 0.205333,0.69067 0,0.37333 -0.205333,0.65333 -0.186667,0.28 -0.541333,0.28 h -2.856 v 5.11467 q 0,0.35466 -0.373334,0.56 -0.354666,0.20533 -0.839999,0.20533 -0.504,0 -0.858667,-0.20533 -0.354667,-0.20534 -0.354667,-0.56 z"
         inkscape:connector-curvature="0" />
      <path
         id="path843"
         style="font-style:normal;font-variant:normal;font-weight:bold;font-stretch:normal;font-size:18.66666603px;font-family:Dosis;-inkscape-font-specification:'Dosis Bold';fill:#fd374b;fill-opacity:1"
         d="M 81.123875,110.83145 V 98.716779 q 0,-0.354666 0.317333,-0.56 0.317334,-0.205333 0.746667,-0.205333 h 6.645333 q 0.373333,0 0.56,0.317333 0.205333,0.317334 0.205333,0.728 0,0.448 -0.205333,0.765334 -0.205333,0.317337 -0.56,0.317337 h -5.282666 v 3.73333 h 2.837333 q 0.354666,0 0.56,0.29867 0.205333,0.28 0.205333,0.672 0,0.35466 -0.205333,0.65333 -0.186667,0.28 -0.56,0.28 h -2.837333 v 3.752 h 5.282666 q 0.354667,0 0.56,0.31733 0.205333,0.31734 0.205333,0.76534 0,0.41066 -0.205333,0.728 -0.186667,0.31733 -0.56,0.31733 h -6.645333 q -0.429333,0 -0.746667,-0.20533 -0.317333,-0.20534 -0.317333,-0.56 z"
         inkscape:connector-curvature="0" />
      <path
         id="path845"
         style="font-style:normal;font-variant:normal;font-weight:bold;font-stretch:normal;font-size:18.66666603px;font-family:Dosis;-inkscape-font-specification:'Dosis Bold';fill:#fd374b;fill-opacity:1"
         d="m 90.332078,109.45011 q 0,-0.42933 0.317334,-0.85866 0.336,-0.448 0.746666,-0.448 0.242667,0 0.541334,0.224 0.317333,0.224 0.597333,0.504 0.298666,0.26133 0.84,0.48533 0.541333,0.224 1.194666,0.224 0.896,0 1.493334,-0.41067 0.597333,-0.41066 0.597333,-1.21333 0,-0.56 -0.336,-0.98933 -0.317333,-0.448 -0.858667,-0.728 -0.522666,-0.29867 -1.157333,-0.56 -0.634667,-0.28 -1.288,-0.616 -0.634667,-0.336 -1.176,-0.74667 -0.522666,-0.42933 -0.858666,-1.12 -0.317334,-0.70933 -0.317334,-1.60533 0,-0.98934 0.392,-1.736004 0.410667,-0.765333 1.082667,-1.176 0.672,-0.429333 1.437333,-0.616 0.765333,-0.205333 1.624,-0.205333 0.485333,0 1.026667,0.07467 0.541333,0.056 1.138666,0.205334 0.616,0.149333 0.989334,0.466666 0.392,0.317334 0.392,0.746667 0,0.410667 -0.261334,0.85866 -0.261333,0.42934 -0.709333,0.42934 -0.168,0 -0.914667,-0.35467 -0.746666,-0.354663 -1.661333,-0.354663 -1.008,0 -1.568,0.391993 -0.541333,0.37334 -0.541333,1.04534 0,0.54133 0.448,0.952 0.448,0.392 1.101333,0.65333 0.672,0.24267 1.437333,0.63467 0.784,0.37333 1.437334,0.82133 0.672,0.448 1.12,1.30667 0.448,0.84 0.448,1.97866 0,1.94134 -1.232,3.00534 -1.213334,1.04533 -3.210667,1.04533 -1.773333,0 -3.042666,-0.728 -1.269334,-0.728 -1.269334,-1.58667 z"
         inkscape:connector-curvature="0" />
    </g>
  </g>
</svg>
